# xmcd CD database file
#
# Track frame offsets:
#	150
#	4089
#	25705
#	42668
#	60437
#	75281
#	91436
#	114196
#	138568
#	159213
#	182113
#	197925
#	212976
#
# Disc length: 3139 seconds
#
# Revision: 1
# Processed by: cddbd v1.5.2PL0 Copyright (c) Steve Scherf et al.
# Submitted via: CDex 1.70beta2
#
DISCID=a40c410d
DTITLE=Chara - honey
DYEAR=2008
DGENRE=J-POP
TTITLE0=Sumire ( Intro )
TTITLE1=TROPHY (Album Version)
TTITLE2=ラブラドール
TTITLE3=Cherry Cherry
TTITLE4=愛を憶える
TTITLE5=マーマレード
TTITLE6=ボクのことを知って
TTITLE7=青いかけら
TTITLE8=そして、僕が届かない
TTITLE9=甘い辛い
TTITLE10=泣きだしそう
TTITLE11=MAHA
TTITLE12=call me
EXTD=YEAR: 2008
EXTT0=
EXTT1=
EXTT2=
EXTT3=
EXTT4=
EXTT5=
EXTT6=
EXTT7=
EXTT8=
EXTT9=
EXTT10=
EXTT11=
EXTT12=
PLAYORDER=
